<svg width="24.000000" height="24.000000" viewBox="0 0 24 24" fill="none" xmlns="http://www.w3.org/2000/svg" xmlns:xlink="http://www.w3.org/1999/xlink">
	<desc>
			Created with Pixso.
	</desc>
	<defs>
		<clipPath id="clip300_3288">
			<rect id="all-application" width="24.000000" height="24.000000" fill="white" fill-opacity="0"/>
		</clipPath>
	</defs>
	<rect id="all-application" width="24.000000" height="24.000000" fill="#FFFFFF" fill-opacity="0"/>
	<g clip-path="url(#clip300_3288)">
		<path id="Vector" d="M4 3C3.44775 3 3 3.44769 3 4L3 9C3 9.55231 3.44775 10 4 10L9 10C9.55225 10 10 9.55231 10 9L10 4C10 3.44769 9.55225 3 9 3L4 3Z" stroke="#DC0200" stroke-opacity="1.000000" stroke-width="2.000000" stroke-linejoin="round"/>
		<path id="Vector" d="M4 14C3.44775 14 3 14.4477 3 15L3 20C3 20.5523 3.44775 21 4 21L9 21C9.55225 21 10 20.5523 10 20L10 15C10 14.4477 9.55225 14 9 14L4 14Z" stroke="#DC0200" stroke-opacity="1.000000" stroke-width="2.000000" stroke-linejoin="round"/>
		<path id="Vector" d="M15 3C14.4478 3 14 3.44769 14 4L14 9C14 9.55231 14.4478 10 15 10L20 10C20.5522 10 21 9.55231 21 9L21 4C21 3.44769 20.5522 3 20 3L15 3Z" stroke="#DC0200" stroke-opacity="1.000000" stroke-width="2.000000" stroke-linejoin="round"/>
		<path id="Vector" d="M15 14C14.4478 14 14 14.4477 14 15L14 20C14 20.5523 14.4478 21 15 21L20 21C20.5522 21 21 20.5523 21 20L21 15C21 14.4477 20.5522 14 20 14L15 14Z" stroke="#DC0200" stroke-opacity="1.000000" stroke-width="2.000000" stroke-linejoin="round"/>
	</g>
</svg>
