<svg width="24" height="24" viewBox="0 0 24 24" fill="none" xmlns="http://www.w3.org/2000/svg">
<path d="M6.39398 2.0587C6.25336 2.08604 5.97211 2.19151 5.76899 2.29307C4.88228 2.73447 4.36276 3.58602 4.36276 4.60945C4.36276 5.01569 4.42526 5.32819 4.5776 5.65631L4.66744 5.85552L3.82371 5.87115C3.0034 5.88287 2.96825 5.88677 2.75731 5.98443C2.47216 6.12114 2.25732 6.31645 2.11279 6.57426L1.99951 6.78129V8.1094C1.99951 9.37501 2.00342 9.44141 2.07764 9.54297C2.1206 9.60157 2.21826 9.6836 2.29638 9.72656L2.44091 9.80859H11.9798H21.5188L21.6633 9.72656C21.7414 9.6836 21.8391 9.60157 21.8821 9.54297C21.9563 9.44141 21.9602 9.37501 21.9602 8.1094V6.78129L21.8469 6.57426C21.7024 6.31645 21.4875 6.12114 21.2024 5.98443C20.9914 5.88677 20.9563 5.88287 20.136 5.87115C19.6672 5.86334 19.2844 5.84771 19.2844 5.8399C19.2844 5.82818 19.3274 5.73443 19.3821 5.62896C19.6047 5.18756 19.6633 4.48835 19.5188 3.93367C19.3352 3.21884 18.8508 2.62119 18.1829 2.28917C17.7141 2.0587 17.3509 1.98058 16.8626 2.00792C16.3157 2.03917 15.8274 2.21495 15.4368 2.51572C15.3157 2.61338 14.3001 3.51571 13.5345 4.21883L13.4251 4.31648L13.3197 4.21492C12.6087 3.54696 11.3509 3.54696 10.6439 4.21492C10.5385 4.31257 10.5346 4.31257 10.4486 4.23836C10.4017 4.1993 9.96815 3.80868 9.48769 3.37118C9.00723 2.93759 8.53458 2.52744 8.44083 2.46104C7.85099 2.05479 7.0971 1.90636 6.39398 2.0587ZM7.47209 3.46493C7.60881 3.52743 8.0424 3.89461 8.81973 4.59773C9.76503 5.45709 9.97206 5.65631 9.97987 5.75396L9.99159 5.86724L8.30021 5.85552L6.60882 5.8438L6.41351 5.73834C6.14789 5.60162 5.93696 5.37897 5.81196 5.12116C5.67524 4.8321 5.67134 4.37507 5.80415 4.10164C6.12055 3.44149 6.8471 3.16806 7.47209 3.46493ZM17.3743 3.40243C17.7454 3.50009 18.1009 3.87508 18.2141 4.28914C18.3782 4.88679 18.093 5.461 17.4915 5.74224L17.2727 5.8438L15.6243 5.85552L13.972 5.86724V5.75787C13.972 5.64459 13.9603 5.65631 15.7767 4.01961C16.511 3.35946 16.7884 3.254 17.3743 3.40243Z" fill="#DC0200"/>
<path d="M3.27661 16.0665L3.28833 21.0391L3.38598 21.2344C3.50708 21.4844 3.78051 21.7578 4.03051 21.8789L4.22582 21.9766L7.46015 21.9883L10.6906 22V16.5469V11.0978H6.97969H3.2688L3.27661 16.0665Z" fill="#DC0200"/>
<path d="M13.269 16.5469V22L16.5034 21.9883L19.7338 21.9766L19.9291 21.8789C20.1791 21.7578 20.4525 21.4844 20.5736 21.2344L20.6713 21.0391L20.683 16.0665L20.6908 11.0978H16.9799H13.269V16.5469Z" fill="#DC0200"/>
</svg>
