<svg width="24.000000" height="24.000000" viewBox="0 0 24 24" fill="none" xmlns="http://www.w3.org/2000/svg" xmlns:xlink="http://www.w3.org/1999/xlink">
	<desc>
			Created with Pixso.
	</desc>
	<defs/>
	<rect id="Property 1=Default" width="24.000000" height="24.000000" fill="#FFFFFF" fill-opacity="0"/>
	<path id="Vector" d="M17.6743 17.2709L7.91162 17.2709C7.00439 17.2709 6.1333 16.8859 5.51953 16.2167C4.90527 15.5475 4.59326 14.6492 4.66699 13.7417L5.42773 4.61169C5.45508 4.32751 5.35449 4.05255 5.16162 3.84174C4.96924 3.63086 4.70361 3.52087 4.41943 3.52087L2.8335 3.52087C2.45752 3.52087 2.146 3.20923 2.146 2.83337C2.146 2.45752 2.45752 2.14587 2.8335 2.14587L4.42871 2.14587C5.09766 2.14587 5.72998 2.43005 6.1792 2.91589C6.42676 3.19086 6.61035 3.51172 6.71094 3.8692L18.1602 3.8692C19.0859 3.8692 19.9385 4.2359 20.562 4.89587C21.1758 5.56506 21.4878 6.43585 21.4146 7.36169L20.9194 14.2367C20.8184 15.9142 19.3521 17.2709 17.6743 17.2709Z" fill="#AAAAAA" fill-opacity="1.000000" fill-rule="nonzero"/>
	<path id="Vector" d="M15.896 21.8542C14.8877 21.8542 14.0625 21.0292 14.0625 20.0208C14.0625 19.0125 14.8877 18.1875 15.896 18.1875C16.9043 18.1875 17.729 19.0125 17.729 20.0208C17.729 21.0292 16.9043 21.8542 15.896 21.8542ZM15.896 19.5625C15.6392 19.5625 15.4375 19.7642 15.4375 20.0208C15.4375 20.2775 15.6392 20.4792 15.896 20.4792C16.1523 20.4792 16.354 20.2775 16.354 20.0208C16.354 19.7642 16.1523 19.5625 15.896 19.5625Z" fill="#AAAAAA" fill-opacity="1.000000" fill-rule="nonzero"/>
	<path id="Vector" d="M8.5625 21.8542C7.5542 21.8542 6.729 21.0292 6.729 20.0208C6.729 19.0125 7.5542 18.1875 8.5625 18.1875C9.5708 18.1875 10.3955 19.0125 10.3955 20.0208C10.3955 21.0292 9.5708 21.8542 8.5625 21.8542ZM8.5625 19.5625C8.30566 19.5625 8.104 19.7642 8.104 20.0208C8.104 20.2775 8.30566 20.4792 8.5625 20.4792C8.81885 20.4792 9.02051 20.2775 9.02051 20.0208C9.02051 19.7642 8.81885 19.5625 8.5625 19.5625Z" fill="#AAAAAA" fill-opacity="1.000000" fill-rule="nonzero"/>
	<g opacity="0.000000"/>
	<path id="Vector" d="M19.4238 9.02081L9.20117 9.02081C8.85205 9.02081 8.5625 8.70917 8.5625 8.33331C8.5625 7.95746 8.85205 7.64581 9.20117 7.64581L19.4238 7.64581C19.7729 7.64581 20.0625 7.95746 20.0625 8.33331C20.0625 8.70917 19.7729 9.02081 19.4238 9.02081Z" fill="#FFFFFF" fill-opacity="1.000000" fill-rule="evenodd"/>
</svg>
