<svg width="24" height="24" viewBox="0 0 24 24" fill="none" xmlns="http://www.w3.org/2000/svg">
<path d="M7.41658 10.8541H5.58325C3.36492 10.8541 2.14575 9.63498 2.14575 7.41665V5.58331C2.14575 3.36498 3.36492 2.14581 5.58325 2.14581H7.41658C9.63492 2.14581 10.8541 3.36498 10.8541 5.58331V7.41665C10.8541 9.63498 9.63492 10.8541 7.41658 10.8541ZM5.58325 3.52081C4.13492 3.52081 3.52075 4.13498 3.52075 5.58331V7.41665C3.52075 8.86498 4.13492 9.47915 5.58325 9.47915H7.41658C8.86492 9.47915 9.47908 8.86498 9.47908 7.41665V5.58331C9.47908 4.13498 8.86492 3.52081 7.41658 3.52081H5.58325Z" fill="#DC0200"/>
<path d="M5.58325 3.52081C4.13492 3.52081 3.52075 4.13498 3.52075 5.58331V7.41665C3.52075 8.86498 4.13492 9.47915 5.58325 9.47915H7.41658C8.86492 9.47915 9.47908 8.86498 9.47908 7.41665V5.58331C9.47908 4.13498 8.86492 3.52081 7.41658 3.52081H5.58325Z" fill="#DC0200"/>
<path d="M18.4167 10.8541H16.5834C14.365 10.8541 13.1459 9.63498 13.1459 7.41665V5.58331C13.1459 3.36498 14.365 2.14581 16.5834 2.14581H18.4167C20.635 2.14581 21.8542 3.36498 21.8542 5.58331V7.41665C21.8542 9.63498 20.635 10.8541 18.4167 10.8541ZM16.5834 3.52081C15.135 3.52081 14.5209 4.13498 14.5209 5.58331V7.41665C14.5209 8.86498 15.135 9.47915 16.5834 9.47915H18.4167C19.865 9.47915 20.4792 8.86498 20.4792 7.41665V5.58331C20.4792 4.13498 19.865 3.52081 18.4167 3.52081H16.5834Z" fill="#DC0200"/>
<path d="M16.5834 3.52081C15.135 3.52081 14.5209 4.13498 14.5209 5.58331V7.41665C14.5209 8.86498 15.135 9.47915 16.5834 9.47915H18.4167C19.865 9.47915 20.4792 8.86498 20.4792 7.41665V5.58331C20.4792 4.13498 19.865 3.52081 18.4167 3.52081H16.5834Z" fill="#DC0200"/>
<path d="M18.4167 21.8541H16.5834C14.365 21.8541 13.1459 20.635 13.1459 18.4166V16.5833C13.1459 14.365 14.365 13.1458 16.5834 13.1458H18.4167C20.635 13.1458 21.8542 14.365 21.8542 16.5833V18.4166C21.8542 20.635 20.635 21.8541 18.4167 21.8541ZM16.5834 14.5208C15.135 14.5208 14.5209 15.135 14.5209 16.5833V18.4166C14.5209 19.865 15.135 20.4791 16.5834 20.4791H18.4167C19.865 20.4791 20.4792 19.865 20.4792 18.4166V16.5833C20.4792 15.135 19.865 14.5208 18.4167 14.5208H16.5834Z" fill="#DC0200"/>
<path d="M16.5834 14.5208C15.135 14.5208 14.5209 15.135 14.5209 16.5833V18.4166C14.5209 19.865 15.135 20.4791 16.5834 20.4791H18.4167C19.865 20.4791 20.4792 19.865 20.4792 18.4166V16.5833C20.4792 15.135 19.865 14.5208 18.4167 14.5208H16.5834Z" fill="#DC0200"/>
<path d="M7.41658 21.8541H5.58325C3.36492 21.8541 2.14575 20.635 2.14575 18.4166V16.5833C2.14575 14.365 3.36492 13.1458 5.58325 13.1458H7.41658C9.63492 13.1458 10.8541 14.365 10.8541 16.5833V18.4166C10.8541 20.635 9.63492 21.8541 7.41658 21.8541ZM5.58325 14.5208C4.13492 14.5208 3.52075 15.135 3.52075 16.5833V18.4166C3.52075 19.865 4.13492 20.4791 5.58325 20.4791H7.41658C8.86492 20.4791 9.47908 19.865 9.47908 18.4166V16.5833C9.47908 15.135 8.86492 14.5208 7.41658 14.5208H5.58325Z" fill="#DC0200"/>
<path d="M5.58325 14.5208C4.13492 14.5208 3.52075 15.135 3.52075 16.5833V18.4166C3.52075 19.865 4.13492 20.4791 5.58325 20.4791H7.41658C8.86492 20.4791 9.47908 19.865 9.47908 18.4166V16.5833C9.47908 15.135 8.86492 14.5208 7.41658 14.5208H5.58325Z" fill="#DC0200"/>
</svg>
