<svg width="24" height="24" viewBox="0 0 24 24" fill="none" xmlns="http://www.w3.org/2000/svg">
<path d="M7.41658 10.8542H5.58325C3.36492 10.8542 2.14575 9.63504 2.14575 7.41671V5.58337C2.14575 3.36504 3.36492 2.14587 5.58325 2.14587H7.41658C9.63492 2.14587 10.8541 3.36504 10.8541 5.58337V7.41671C10.8541 9.63504 9.63492 10.8542 7.41658 10.8542ZM5.58325 3.52087C4.13492 3.52087 3.52075 4.13504 3.52075 5.58337V7.41671C3.52075 8.86504 4.13492 9.47921 5.58325 9.47921H7.41658C8.86492 9.47921 9.47908 8.86504 9.47908 7.41671V5.58337C9.47908 4.13504 8.86492 3.52087 7.41658 3.52087H5.58325Z" fill="#AAAAAA"/>
<path d="M5.58325 3.52087C4.13492 3.52087 3.52075 4.13504 3.52075 5.58337V7.41671C3.52075 8.86504 4.13492 9.47921 5.58325 9.47921H7.41658C8.86492 9.47921 9.47908 8.86504 9.47908 7.41671V5.58337C9.47908 4.13504 8.86492 3.52087 7.41658 3.52087H5.58325Z" fill="#AAAAAA"/>
<path d="M18.4168 10.8542H16.5835C14.3652 10.8542 13.146 9.63504 13.146 7.41671V5.58337C13.146 3.36504 14.3652 2.14587 16.5835 2.14587H18.4168C20.6352 2.14587 21.8543 3.36504 21.8543 5.58337V7.41671C21.8543 9.63504 20.6352 10.8542 18.4168 10.8542ZM16.5835 3.52087C15.1352 3.52087 14.521 4.13504 14.521 5.58337V7.41671C14.521 8.86504 15.1352 9.47921 16.5835 9.47921H18.4168C19.8652 9.47921 20.4793 8.86504 20.4793 7.41671V5.58337C20.4793 4.13504 19.8652 3.52087 18.4168 3.52087H16.5835Z" fill="#AAAAAA"/>
<path d="M16.5835 3.52087C15.1352 3.52087 14.521 4.13504 14.521 5.58337V7.41671C14.521 8.86504 15.1352 9.47921 16.5835 9.47921H18.4168C19.8652 9.47921 20.4793 8.86504 20.4793 7.41671V5.58337C20.4793 4.13504 19.8652 3.52087 18.4168 3.52087H16.5835Z" fill="#AAAAAA"/>
<path d="M18.4168 21.8542H16.5835C14.3652 21.8542 13.146 20.635 13.146 18.4167V16.5834C13.146 14.365 14.3652 13.1459 16.5835 13.1459H18.4168C20.6352 13.1459 21.8543 14.365 21.8543 16.5834V18.4167C21.8543 20.635 20.6352 21.8542 18.4168 21.8542ZM16.5835 14.5209C15.1352 14.5209 14.521 15.135 14.521 16.5834V18.4167C14.521 19.865 15.1352 20.4792 16.5835 20.4792H18.4168C19.8652 20.4792 20.4793 19.865 20.4793 18.4167V16.5834C20.4793 15.135 19.8652 14.5209 18.4168 14.5209H16.5835Z" fill="#AAAAAA"/>
<path d="M16.5835 14.5209C15.1352 14.5209 14.521 15.135 14.521 16.5834V18.4167C14.521 19.865 15.1352 20.4792 16.5835 20.4792H18.4168C19.8652 20.4792 20.4793 19.865 20.4793 18.4167V16.5834C20.4793 15.135 19.8652 14.5209 18.4168 14.5209H16.5835Z" fill="#AAAAAA"/>
<path d="M7.41658 21.8542H5.58325C3.36492 21.8542 2.14575 20.635 2.14575 18.4167V16.5834C2.14575 14.365 3.36492 13.1459 5.58325 13.1459H7.41658C9.63492 13.1459 10.8541 14.365 10.8541 16.5834V18.4167C10.8541 20.635 9.63492 21.8542 7.41658 21.8542ZM5.58325 14.5209C4.13492 14.5209 3.52075 15.135 3.52075 16.5834V18.4167C3.52075 19.865 4.13492 20.4792 5.58325 20.4792H7.41658C8.86492 20.4792 9.47908 19.865 9.47908 18.4167V16.5834C9.47908 15.135 8.86492 14.5209 7.41658 14.5209H5.58325Z" fill="#AAAAAA"/>
<path d="M5.58325 14.5209C4.13492 14.5209 3.52075 15.135 3.52075 16.5834V18.4167C3.52075 19.865 4.13492 20.4792 5.58325 20.4792H7.41658C8.86492 20.4792 9.47908 19.865 9.47908 18.4167V16.5834C9.47908 15.135 8.86492 14.5209 7.41658 14.5209H5.58325Z" fill="#AAAAAA"/>
</svg>
