<svg width="20" height="21" viewBox="0 0 20 21" fill="none" xmlns="http://www.w3.org/2000/svg">
<path fill-rule="evenodd" clip-rule="evenodd" d="M3 20.5C1.34315 20.5 0 19.1569 0 17.5V5.5C0 3.84315 1.34315 2.5 3 2.5H4V1.5C4 0.947715 4.44772 0.5 5 0.5C5.55228 0.5 6 0.947715 6 1.5V2.5H14V1.5C14 0.947715 14.4477 0.5 15 0.5C15.5523 0.5 16 0.947715 16 1.5V2.5H17C18.6569 2.5 20 3.84315 20 5.5V17.5C20 19.1569 18.6569 20.5 17 20.5H3ZM6 15.5H2V17.5C2 18.0523 2.44772 18.5 3 18.5H6V15.5ZM12 15.5H8V18.5H12V15.5ZM18 15.5H14V18.5H17C17.5523 18.5 18 18.0523 18 17.5V15.5ZM6 10.5H2V13.5H6V10.5ZM12 10.5H8V13.5H12V10.5ZM18 10.5H14V13.5H18V10.5ZM4 4.5H3C2.44772 4.5 2 4.94772 2 5.5V8.5H18V5.5C18 4.94772 17.5523 4.5 17 4.5H16V5.5C16 6.05228 15.5523 6.5 15 6.5C14.4477 6.5 14 6.05228 14 5.5V4.5H6V5.5C6 6.05228 5.55228 6.5 5 6.5C4.44772 6.5 4 6.05228 4 5.5V4.5Z" fill="#DC0200"/>
</svg>
