<svg width="262" height="233" viewBox="0 0 262 233" fill="none" xmlns="http://www.w3.org/2000/svg">
<circle cx="118" cy="97" r="97" fill="#F5F7FA"/>
<circle cx="118" cy="98" r="55" fill="white"/>
<rect x="138.889" y="75.7861" width="15.0794" height="30.9127" rx="3.01587" fill="#CFCFCF"/>
<rect x="82.3413" y="102.929" width="71.627" height="61.0714" rx="10.5556" fill="#CFCFCF"/>
<path d="M116.881 70.8422C118.031 69.7974 119.787 69.7974 120.937 70.8422L159.818 106.163C161.859 108.016 160.547 111.411 157.79 111.411H80.0276C77.2704 111.411 75.9589 108.016 77.9997 106.163L116.881 70.8422Z" fill="#EDEDED"/>
<path d="M118.274 202.729C118.274 202.729 181.547 152.111 181.547 97.2736C181.547 62.3284 153.219 34 118.274 34C83.3284 34 55 62.3284 55 97.2736C55 152.111 118.274 202.729 118.274 202.729Z" stroke="#DC0200" stroke-width="16.8729" stroke-linejoin="round"/>
<path d="M59.9999 93.9996C63 104 71.9999 152 117 152C160.195 152 170.668 119.916 173.199 103.473C173.512 100.213 173.775 97.0427 174 93.9996C174 93.9996 174.071 97.8082 173.199 103.473C169.402 142.925 158.16 195.493 117 193.967C72.4389 192.316 56.9998 83.9997 59.9999 93.9996Z" fill="#DC0200"/>
<path d="M165.257 131C186.89 136.878 181.615 154.823 176.274 163.06C131.931 211.489 59.1761 208.443 22.0329 192.589M1 178.423C3.17006 180.649 8.51173 185.77 12.518 188.442" stroke="#AAAAAA" stroke-width="2" stroke-linecap="round" stroke-dasharray="4 6"/>
<path d="M160.083 131.042C152.295 133.262 137.449 140.737 140.368 152.878C143.287 165.019 155.012 164.155 161.195 164.076C179.743 163.838 210.162 149.323 229.292 131.979" stroke="#AAAAAA" stroke-width="2" stroke-linecap="round" stroke-dasharray="4 6"/>
<ellipse cx="118" cy="226.5" rx="71" ry="6.5" fill="#E5E5E5"/>
<circle cx="47" cy="66" r="23" fill="#CFCFCF"/>
<path d="M47 94L43.5359 88L50.4641 88L47 94Z" fill="#CFCFCF"/>
<path d="M40.207 55.645C40.5923 55.305 41.0117 54.982 41.465 54.676C41.9297 54.37 42.4283 54.1037 42.961 53.877C43.4937 53.6503 44.0717 53.4747 44.695 53.35C45.3183 53.214 45.9927 53.146 46.718 53.146C47.704 53.146 48.5993 53.282 49.404 53.554C50.22 53.826 50.917 54.217 51.495 54.727C52.073 55.2257 52.5207 55.832 52.838 56.546C53.1553 57.26 53.314 58.059 53.314 58.943C53.314 59.8043 53.1893 60.5523 52.94 61.187C52.6907 61.8103 52.379 62.3543 52.005 62.819C51.631 63.2837 51.2173 63.686 50.764 64.026C50.322 64.366 49.9027 64.689 49.506 64.995C49.1093 65.2897 48.7637 65.5843 48.469 65.879C48.1857 66.1623 48.0157 66.4853 47.959 66.848L47.568 69.33H44.695L44.406 66.559C44.338 66.0263 44.4117 65.5617 44.627 65.165C44.8537 64.757 45.1483 64.3887 45.511 64.06C45.885 63.72 46.2987 63.397 46.752 63.091C47.2053 62.7737 47.6303 62.4337 48.027 62.071C48.4237 61.697 48.7523 61.2833 49.013 60.83C49.285 60.3653 49.421 59.8157 49.421 59.181C49.421 58.773 49.3417 58.4103 49.183 58.093C49.0357 57.7643 48.826 57.4867 48.554 57.26C48.282 57.022 47.9533 56.8407 47.568 56.716C47.194 56.5913 46.786 56.529 46.344 56.529C45.698 56.529 45.1483 56.6027 44.695 56.75C44.253 56.886 43.8733 57.0447 43.556 57.226C43.25 57.396 42.9893 57.5547 42.774 57.702C42.5587 57.838 42.366 57.906 42.196 57.906C41.788 57.906 41.4933 57.736 41.312 57.396L40.207 55.645ZM43.42 75.688C43.42 75.3367 43.4823 75.0023 43.607 74.685C43.743 74.3677 43.9243 74.0957 44.151 73.869C44.3777 73.6423 44.6497 73.461 44.967 73.325C45.2843 73.189 45.6243 73.121 45.987 73.121C46.3497 73.121 46.684 73.189 46.99 73.325C47.3073 73.461 47.5793 73.6423 47.806 73.869C48.044 74.0957 48.231 74.3677 48.367 74.685C48.503 75.0023 48.571 75.3367 48.571 75.688C48.571 76.0507 48.503 76.3907 48.367 76.708C48.231 77.014 48.044 77.2803 47.806 77.507C47.5793 77.7337 47.3073 77.9093 46.99 78.034C46.684 78.17 46.3497 78.238 45.987 78.238C45.6243 78.238 45.2843 78.17 44.967 78.034C44.6497 77.9093 44.3777 77.7337 44.151 77.507C43.9243 77.2803 43.743 77.014 43.607 76.708C43.4823 76.3907 43.42 76.0507 43.42 75.688Z" fill="white"/>
<path d="M249.508 110.114C241.02 108.155 235.71 111.431 234.015 113.957C235.961 113.276 238.727 114.416 239.867 115.071C232.986 116.215 231.88 120.855 232.187 123.032C236.559 119.92 240.536 119.582 250.036 119.418C257.635 119.288 261.017 111.356 261.757 107.406C260.87 108.771 254.954 111.37 249.508 110.114Z" fill="#68B936"/>
</svg>
