<svg width="213" height="233" viewBox="0 0 213 233" fill="none" xmlns="http://www.w3.org/2000/svg">
<circle cx="116" cy="97" r="97" fill="#F5F7FA"/>
<path d="M122.667 135.444C122.667 132.99 124.656 131 127.111 131H166C168.454 131 170.444 132.99 170.444 135.444V204.333C170.444 208.015 167.46 211 163.778 211H127.111C124.656 211 122.667 209.01 122.667 206.556V135.444Z" fill="#EB3F3E"/>
<path d="M57.1108 135.444C57.1108 132.99 59.1007 131 61.5553 131H128.222V211H63.7775C60.0956 211 57.1108 208.015 57.1108 204.333V135.444Z" fill="#DC0200"/>
<path d="M181.447 131.931C181.03 131.347 180.356 131 179.638 131H128.222L150.553 162.291C150.97 162.875 151.643 163.222 152.361 163.222H199.462C201.269 163.222 202.32 161.18 201.27 159.709L181.447 131.931Z" fill="#CFCFCF"/>
<path d="M56.4558 131.679C56.8746 131.245 57.4516 131 58.0545 131H128.222L97.7664 162.544C97.3476 162.977 96.7706 163.222 96.1677 163.222H31.2346C29.2735 163.222 28.2738 160.867 29.6359 159.456L56.4558 131.679Z" fill="#68B936"/>
<path d="M29.5 34.5C45.5 41.5 98 70 81 101C74.1667 105.667 56.5 107 60 93.5C63.5 82.5 88.8 79.3 86 120.5" stroke="#AAAAAA" stroke-width="2" stroke-linecap="round" stroke-dasharray="4 6"/>
<path d="M126 97V117.5" stroke="#AAAAAA" stroke-width="2" stroke-linecap="round"/>
<path d="M107 104.5L112 118" stroke="#AAAAAA" stroke-width="2" stroke-linecap="round"/>
<path d="M145 103.5L140 117" stroke="#AAAAAA" stroke-width="2" stroke-linecap="round"/>
<ellipse cx="116" cy="226.5" rx="71" ry="6.5" fill="#E5E5E5"/>
<circle cx="163" cy="69" r="23" fill="#CFCFCF"/>
<path d="M163 97L159.536 91L166.464 91L163 97Z" fill="#CFCFCF"/>
<path d="M171.87 68.709C171.87 70.851 171.638 72.7153 171.173 74.302C170.72 75.8773 170.085 77.1807 169.269 78.212C168.464 79.2433 167.507 80.014 166.396 80.524C165.297 81.0227 164.107 81.272 162.826 81.272C161.545 81.272 160.355 81.0227 159.256 80.524C158.168 80.014 157.222 79.2433 156.417 78.212C155.612 77.1807 154.983 75.8773 154.53 74.302C154.077 72.7153 153.85 70.851 153.85 68.709C153.85 66.5557 154.077 64.6913 154.53 63.116C154.983 61.5407 155.612 60.2373 156.417 59.206C157.222 58.1747 158.168 57.4097 159.256 56.911C160.355 56.401 161.545 56.146 162.826 56.146C164.107 56.146 165.297 56.401 166.396 56.911C167.507 57.4097 168.464 58.1747 169.269 59.206C170.085 60.2373 170.72 61.5407 171.173 63.116C171.638 64.6913 171.87 66.5557 171.87 68.709ZM167.535 68.709C167.535 66.9297 167.405 65.4563 167.144 64.289C166.883 63.1217 166.532 62.1923 166.09 61.501C165.659 60.8097 165.161 60.328 164.594 60.056C164.027 59.7727 163.438 59.631 162.826 59.631C162.225 59.631 161.642 59.7727 161.075 60.056C160.52 60.328 160.027 60.8097 159.596 61.501C159.165 62.1923 158.82 63.1217 158.559 64.289C158.31 65.4563 158.185 66.9297 158.185 68.709C158.185 70.4883 158.31 71.9617 158.559 73.129C158.82 74.2963 159.165 75.2257 159.596 75.917C160.027 76.6083 160.52 77.0957 161.075 77.379C161.642 77.651 162.225 77.787 162.826 77.787C163.438 77.787 164.027 77.651 164.594 77.379C165.161 77.0957 165.659 76.6083 166.09 75.917C166.532 75.2257 166.883 74.2963 167.144 73.129C167.405 71.9617 167.535 70.4883 167.535 68.709Z" fill="white"/>
<path d="M19.515 18.4906C11.0266 16.5324 5.71678 19.8075 4.02256 22.3338C5.9684 21.6525 8.73414 22.7928 9.87379 23.4481C2.993 24.5922 1.8872 29.2322 2.1944 31.4091C6.56567 28.2969 10.543 27.9586 20.0427 27.7954C27.6424 27.6648 31.0237 19.7327 31.7644 15.7829C30.8772 17.148 24.9609 19.7469 19.515 18.4906Z" fill="#68B936"/>
</svg>
