<svg width="22" height="20" viewBox="0 0 22 20" fill="none" xmlns="http://www.w3.org/2000/svg">
<path fill-rule="evenodd" clip-rule="evenodd" d="M9.81179 19.2822L11.0028 17.3031L12.1939 19.2641C11.3999 19.7186 10.6058 19.7255 9.81179 19.2822ZM9.28234 3.46894C8.48831 2.86299 7.42961 2.30707 6.10623 2.30707C3.32713 2.30707 1.73907 4.44875 2.26842 7.38957C3.19479 12.4248 11.0027 17.303 11.0027 17.303C9.81169 19.2821 9.81169 19.2821 9.81169 19.2821V19.2793V19.2751V19.2598C9.81169 19.2487 9.81169 19.2321 9.67935 19.2098C9.67935 19.1681 9.54702 19.107 9.41468 19.0291C9.28234 18.8735 8.88533 18.6469 8.48831 18.362C7.69428 17.795 6.63558 16.9778 5.57687 15.9869C4.51817 15.0001 3.32713 13.8049 2.26842 12.4735C1.34206 11.1601 0.415692 9.57989 0.151016 7.82874C-0.245999 5.83021 0.151016 3.83724 1.20972 2.30707C2.40076 0.76578 4.25349 0 6.10623 0C8.22364 0 9.81169 0.990927 10.8704 1.78172C10.8704 1.81369 11.0027 1.84426 11.0027 1.87623C11.0027 1.84426 11.0027 1.81369 11.1351 1.78172C12.1938 0.990927 13.7818 0 15.7669 0C20.1341 0 22.6485 4.21526 21.8545 7.92186C21.4574 9.62158 20.5311 11.1684 19.6047 12.4679C18.546 13.7854 17.4873 14.9751 16.2963 15.9605C15.2376 16.9514 14.1788 17.77 13.3848 18.3398C13.1201 18.6261 12.7231 18.8526 12.4585 19.0097C12.4585 19.0875 12.3261 19.1487 12.1938 19.1917C12.1938 19.2029 12.1938 19.2126 12.1938 19.2209C12.1938 19.2293 12.1938 19.2362 12.1938 19.2418V19.2571V19.2612V19.264C12.1938 19.264 12.1938 19.264 11.0027 17.303C11.0027 17.303 18.546 12.3845 19.6047 7.38957C20.2664 4.98521 18.546 2.30707 15.7669 2.30707C14.5759 2.30707 13.5172 2.86299 12.5908 3.46894C11.6644 4.19164 11.0027 4.98521 11.0027 4.98521C11.0027 4.98521 10.341 4.19164 9.28234 3.46894Z" fill="#DC0200"/>
<path d="M10.9999 18.3338L9.58217 17.1029C4.54661 12.7482 1.22217 9.87612 1.22217 6.35133C1.22217 3.47927 3.58839 1.22266 6.59995 1.22266C8.30128 1.22266 9.93417 1.97797 10.9999 3.17155C12.0657 1.97797 13.6986 1.22266 15.3999 1.22266C18.4115 1.22266 20.7777 3.47927 20.7777 6.35133C20.7777 9.87612 17.4533 12.7482 12.4177 17.1122L10.9999 18.3338Z" fill="#DC0200"/>
</svg>
