<svg width="20.000000" height="20.000000" viewBox="0 0 20 20" fill="none" xmlns="http://www.w3.org/2000/svg" xmlns:xlink="http://www.w3.org/1999/xlink">
	<desc>
			Created with Pixso.
	</desc>
	<defs>
		<clipPath id="clip20_2043">
			<rect id="support 1 (traced)" width="20.000000" height="20.000000" fill="white" fill-opacity="0"/>
		</clipPath>
	</defs>
	<rect id="support 1 (traced)" width="20.000000" height="20.000000" fill="#FFFFFF" fill-opacity="0"/>
	<g clip-path="url(#clip20_2043)">
		<path id="Vector" d="M9.29688 0.589844C6.04688 0.917969 3.4375 3.39844 2.94922 6.625C2.91797 6.83594 2.89062 7.03125 2.89062 7.05469C2.89062 7.08203 2.75781 7.10547 2.52734 7.11719C1.45312 7.17578 0.511719 7.89453 0.125 8.95312L0.0195312 9.23828L0.0078125 10.5742C-0.0078125 12.1016 0.00390625 12.168 0.289062 12.7539C0.664062 13.5156 1.35938 14.0391 2.20703 14.1992C2.89844 14.3281 3.62109 14.3047 3.88672 14.1406C4.15234 13.9766 4.14062 14.125 4.14062 10.7344C4.14062 7.11328 4.16406 6.77344 4.4375 5.91797C5.05859 3.98438 6.66406 2.49219 8.62891 2.01562C11.0234 1.43359 13.4805 2.40625 14.8789 4.48828C15.0938 4.80469 15.4336 5.51562 15.5625 5.91797C15.8359 6.77344 15.8594 7.11328 15.8594 10.7422C15.8594 14.2188 15.8398 13.9922 16.1758 14.1719C16.3438 14.2617 16.3672 14.2656 17.0703 14.2461C17.7148 14.2305 17.8242 14.2188 18.1055 14.1289C18.543 13.9844 18.8789 13.7773 19.2227 13.4375C19.4609 13.1992 19.5547 13.0703 19.7031 12.7734C20 12.168 20.0078 12.1055 19.9922 10.5742L19.9805 9.23828L19.875 8.95312C19.4922 7.89844 18.543 7.17578 17.4727 7.11719C17.2422 7.10547 17.1094 7.08203 17.1094 7.05469C17.1094 6.90234 16.9766 6.17188 16.8867 5.84375C16.0039 2.48438 12.7617 0.242188 9.29688 0.589844Z" fill="#FFFFFF" fill-opacity="1.000000" fill-rule="nonzero"/>
		<path id="Vector" d="M2.63281 15.0781C2.72266 15.6367 3.09766 16.4492 3.50391 16.9531C4.33984 17.9922 5.57031 18.5547 7.01172 18.5547L7.32422 18.5547L7.32422 18.1875L7.32422 17.8242L6.81641 17.8008C6.03125 17.7617 5.49609 17.5977 4.90234 17.207C4.16016 16.7227 3.64453 15.9922 3.40234 15.0977L3.36328 14.9414L2.98438 14.9336L2.60938 14.9297L2.63281 15.0781Z" fill="#FFFFFF" fill-opacity="1.000000" fill-rule="nonzero"/>
		<path id="Vector" d="M8.82422 16.9688C8.45703 17.1016 8.17969 17.375 8.04297 17.7305C7.97656 17.9023 7.96484 18.0078 7.97656 18.2422C8.00781 18.7383 8.26562 19.1211 8.71094 19.332L8.92578 19.4336L10 19.4336L11.0742 19.4336L11.2891 19.332C11.7344 19.1211 11.9922 18.7383 12.0234 18.2422C12.0508 17.7305 11.8125 17.3008 11.3633 17.0508L11.1523 16.9336L10.0586 16.9258C9.23047 16.918 8.92969 16.9258 8.82422 16.9688Z" fill="#FFFFFF" fill-opacity="1.000000" fill-rule="nonzero"/>
	</g>
</svg>
