<svg width="24" height="24" viewBox="0 0 24 24" fill="none" xmlns="http://www.w3.org/2000/svg">
<path fill-rule="evenodd" clip-rule="evenodd" d="M6.39996 22.5598H17.6C19.38 22.5598 21.08 21.1298 21.38 19.3598L22.71 11.3998C22.91 10.1598 22.31 8.56982 21.33 7.77982L14.4 2.23982C13.05 1.15982 10.94 1.14982 9.59996 2.22982L2.66996 7.77982C1.67996 8.56982 1.06996 10.1598 1.28996 11.3998L2.61996 19.3698C2.91996 21.1598 4.57996 22.5598 6.39996 22.5598ZM13 15C13 14.4477 12.5523 14 12 14C11.4477 14 11 14.4477 11 15V18C11 18.5523 11.4477 19 12 19C12.5523 19 13 18.5523 13 18V15Z" fill="#AAAAAA"/>
</svg>
