<svg width="20.000000" height="20.000000" viewBox="0 0 20 20" fill="none" xmlns="http://www.w3.org/2000/svg" xmlns:xlink="http://www.w3.org/1999/xlink">
	<desc>
			Created with Pixso.
	</desc>
	<defs/>
	<path id="Icon" d="M10 1.66699C5.39758 1.66699 1.66663 5.39844 1.66663 10C1.66663 14.6025 5.39758 18.334 10 18.334C14.6023 18.334 18.3333 14.6025 18.3333 10C18.3333 5.39844 14.6023 1.66699 10 1.66699ZM10 5.83398C9.42468 5.83398 8.95825 5.36719 8.95825 4.79199C8.95825 4.2168 9.42468 3.75 10 3.75C10.5752 3.75 11.0416 4.2168 11.0416 4.79199C11.0416 5.36719 10.5752 5.83398 10 5.83398ZM8.95825 15.209C8.95825 15.7842 9.42468 16.25 10 16.25C10.5753 16.25 11.0416 15.7842 11.0416 15.209L11.0416 8.95898C11.0416 8.38379 10.5753 7.91699 10 7.91699C9.42468 7.91699 8.95825 8.38379 8.95825 8.95898L8.95825 15.209Z" clip-rule="evenodd" fill="#FFFFFF" fill-opacity="1.000000" fill-rule="evenodd"/>
</svg>
