<svg width="30.000000" height="30.000000" viewBox="0 0 30 30" fill="none" xmlns="http://www.w3.org/2000/svg" xmlns:xlink="http://www.w3.org/1999/xlink">
	<desc>
			Created with Pixso.
	</desc>
	<defs>
		<clipPath id="clip182_2181">
			<rect id="инстаграм" width="30.000000" height="30.000000" fill="white" fill-opacity="0"/>
		</clipPath>
	</defs>
	<rect id="инстаграм" width="30.000000" height="30.000000" fill="#FFFFFF" fill-opacity="0"/>
	<g clip-path="url(#clip182_2181)">
		<path id="Vector" d="M12.5098 0.0361328C10.1426 0.188477 7.3125 0.581055 6.42188 0.885742C4.08984 1.68262 1.75195 3.99121 0.914062 6.3291C0.662109 7.02637 0.363281 8.86621 0.134766 11.1338C-0.0175781 12.6162 -0.0175781 17.3857 0.134766 18.8682C0.363281 21.1357 0.662109 22.9756 0.914062 23.6729C1.62305 25.6475 3.52148 27.7393 5.50781 28.7412C6.55078 29.2686 7.91602 29.5381 11.1914 29.8662C12.4922 29.9951 17.1914 30.0127 18.4863 29.8955C20.5547 29.7021 22.7812 29.3799 23.4375 29.1748C24.0176 28.999 25.043 28.4658 25.6641 28.0205C26.3789 27.5107 27.5215 26.374 28.0195 25.665C28.8457 24.499 29.2031 23.6084 29.4375 22.1787C29.8711 19.4893 29.9707 18.1533 29.9707 15.001C29.9707 12.2881 29.9414 11.7197 29.7012 9.72754C29.3555 6.80957 29.0977 5.94238 28.1895 4.59473C27.041 2.88379 25.3184 1.49512 23.6133 0.891602C22.9219 0.651367 21.2227 0.381836 18.8672 0.141602C18.0059 0.0537109 13.4414 -0.0224609 12.5098 0.0361328ZM20.291 5.87793C21.334 6.2002 22.084 6.6748 22.8281 7.45996C23.7363 8.42676 24.1992 9.48145 24.3164 10.8701C24.3926 11.7256 24.3926 18.3701 24.3164 19.1904C24.2461 19.999 24.0879 20.5674 23.7598 21.2412C23.127 22.5244 21.9961 23.5322 20.6426 24.0186C19.7402 24.3467 19.7344 24.3467 14.9707 24.3467C10.1191 24.3467 10.2129 24.3525 9.2168 23.9658C7.93359 23.4736 6.84961 22.4775 6.24023 21.2412C5.91211 20.5674 5.75391 19.999 5.68359 19.1904C5.60742 18.3584 5.60742 11.7256 5.68359 10.835C5.80078 9.41113 6.36914 8.21582 7.38867 7.23145C8.19727 6.45801 9.02344 6.01855 10.1426 5.77246C10.4473 5.70801 11.3613 5.69629 15.1465 5.70215L19.7754 5.71387L20.291 5.87793Z" fill="#DC0200" fill-opacity="1.000000" fill-rule="nonzero"/>
		<path id="Vector" d="M10.2656 7.61719C8.9707 7.95703 7.88672 9.05273 7.58789 10.3184C7.45898 10.8809 7.45898 19.125 7.59375 19.6875C7.89844 20.9824 8.97656 22.0781 10.2832 22.4121C10.5762 22.4883 11.291 22.5 15 22.5C19.2363 22.5 19.3828 22.4941 19.8047 22.377C20.4668 22.1953 20.8887 21.9434 21.416 21.416C21.9434 20.8945 22.2539 20.3555 22.4062 19.6875C22.541 19.1191 22.5469 10.8633 22.4121 10.3418C22.0957 9.09375 21.1523 8.08008 19.9219 7.6582C19.541 7.5293 19.5176 7.5293 15.1172 7.51758C10.9043 7.50586 10.6699 7.51172 10.2656 7.61719ZM20.3789 9.13477C21.2578 9.58594 21.2461 10.752 20.3672 11.2031C20.0391 11.3672 19.5469 11.332 19.2363 11.1152C18.4922 10.5996 18.5977 9.47461 19.4238 9.10547C19.6816 8.99414 20.127 9.00586 20.3789 9.13477ZM16.1367 10.3418C17.5664 10.7227 18.6621 11.6133 19.3301 12.9316C19.6758 13.6172 19.7754 14.1094 19.7695 15.0586C19.7695 15.8496 19.7578 15.9434 19.582 16.4648C19.1602 17.7422 18.2695 18.7617 17.0918 19.3359C15.0996 20.2969 12.6211 19.7461 11.291 18.0527C8.9707 15.0996 10.5645 10.9219 14.2617 10.2539C14.6719 10.1836 15.7148 10.2305 16.1367 10.3418Z" fill="#DC0200" fill-opacity="1.000000" fill-rule="nonzero"/>
		<path id="Vector" d="M14.3145 12.0996C13.002 12.3867 12.0117 13.6348 12.0117 15C12.0117 15.8145 12.3105 16.5352 12.8848 17.1152C13.4883 17.7188 14.1387 17.9824 15 17.9883C16.6699 17.9941 17.9883 16.6699 17.9883 15C17.9883 13.6113 17.0039 12.3809 15.6621 12.0996C15.1758 11.9941 14.7949 11.9941 14.3145 12.0996Z" fill="#DC0200" fill-opacity="1.000000" fill-rule="nonzero"/>
	</g>
</svg>
