<svg width="20" height="17" viewBox="0 0 20 17" fill="none" xmlns="http://www.w3.org/2000/svg">
<path fill-rule="evenodd" clip-rule="evenodd" d="M9.0102 16.7345L10.0027 15.0853L10.9953 16.7195C10.3336 17.0982 9.67189 17.104 9.0102 16.7345ZM8.56841 3.5568C7.90672 3.05184 7.02447 2.58857 5.92165 2.58857C3.60574 2.58857 2.28236 4.37331 2.72348 6.82399C3.49546 11.02 10.0021 15.0852 10.0021 15.0852C9.00954 16.7344 9.00954 16.7344 9.00954 16.7344V16.7321V16.7286V16.7159C9.00954 16.7066 9.00954 16.6927 8.89926 16.6742C8.89926 16.6394 8.78898 16.5885 8.67869 16.5236C8.56841 16.3939 8.23757 16.2051 7.90672 15.9677C7.24503 15.4952 6.36278 14.8142 5.48053 13.9884C4.59827 13.1661 3.60574 12.1701 2.72348 11.0606C1.95151 9.96609 1.17954 8.64926 0.958976 7.18997C0.628131 5.52452 0.958976 3.86371 1.84123 2.58857C2.83377 1.30417 4.37771 0.666016 5.92165 0.666016C7.68616 0.666016 9.00954 1.49179 9.89179 2.15079C9.89179 2.17742 10.0021 2.2029 10.0021 2.22954C10.0021 2.2029 10.0021 2.17742 10.1124 2.15079C10.9946 1.49179 12.318 0.666016 13.9722 0.666016C17.6115 0.666016 19.7069 4.17873 19.0452 7.26757C18.7143 8.684 17.9424 9.97304 17.1704 11.0559C16.2881 12.1539 15.4059 13.1453 14.4133 13.9664C13.5311 14.7922 12.6488 15.4743 11.9871 15.9492C11.7666 16.1878 11.4357 16.3765 11.2152 16.5074C11.2152 16.5723 11.1049 16.6232 10.9946 16.6591C10.9946 16.6684 10.9946 16.6765 10.9946 16.6835C10.9946 16.6904 10.9946 16.6962 10.9946 16.7008V16.7136V16.717V16.7194C10.9946 16.7194 10.9946 16.7194 10.0021 15.0852C10.0021 15.0852 16.2881 10.9864 17.1704 6.82399C17.7218 4.82036 16.2881 2.58857 13.9722 2.58857C12.9797 2.58857 12.0974 3.05184 11.3255 3.5568C10.5535 4.15905 10.0021 4.82036 10.0021 4.82036C10.0021 4.82036 9.45067 4.15905 8.56841 3.5568Z" fill="white"/>
<path d="M10.0002 15.9429L8.81872 14.9171C4.62242 11.2882 1.85205 8.89482 1.85205 5.95749C1.85205 3.56411 3.8239 1.68359 6.33353 1.68359C7.75131 1.68359 9.11205 2.31302 10.0002 3.30767C10.8883 2.31302 12.2491 1.68359 13.6669 1.68359C16.1765 1.68359 18.1483 3.56411 18.1483 5.95749C18.1483 8.89482 15.378 11.2882 11.1817 14.9249L10.0002 15.9429Z" fill="white"/>
</svg>
