<svg width="79" height="30" viewBox="0 0 79 30" fill="none" xmlns="http://www.w3.org/2000/svg">
<path d="M30.0522 1.76527C28.9862 2.83126 26.7019 7.2475 23.6055 14.0495C18.6816 24.8109 17.3618 26.9937 15.5852 26.9937C14.773 26.9937 14.6207 26.7399 14.9253 25.4708C15.0776 24.6079 15.9913 22.1713 17.0065 20.0394C19.0877 15.5724 19.1892 14.151 17.6664 13.0343C16.5497 12.2729 16.4481 12.3236 15.3314 13.6434L14.1131 15.0647L14.4684 13.4911C14.8238 11.5622 13.7578 10.2424 11.7781 10.2424C6.39739 10.2424 0.00146484 18.618 0.00146484 25.7246C0.00146484 28.1104 0.153749 28.618 1.2705 29.3287C3.55476 30.8008 7.15881 28.6688 10.2045 23.948C11.0167 22.7297 11.0167 22.7297 10.8136 25.2678C10.5598 27.4505 10.7121 28.0596 11.6258 28.9734C13.3517 30.6992 15.5344 30.2424 18.3771 27.6536L19.6969 26.3845L20.0522 27.5013C20.509 28.9226 23.504 30.1916 25.3821 29.7855C26.1436 29.6332 27.3111 28.9226 27.9202 28.2627L29.0369 27.0444L30.1537 28.2627C30.7121 28.9226 31.8288 29.5825 32.641 29.7348C33.8593 30.0393 34.0116 29.8871 34.0116 28.8211C34.0116 28.1612 34.7222 26.283 35.5852 24.6586C37.1588 21.5622 41.1181 16.1307 41.4735 16.4861C41.575 16.5876 40.8643 18.3642 39.8491 20.4454C37.0572 26.2322 37.5649 29.0749 41.5242 29.8363C42.9456 30.1409 43.1486 30.0393 43.1486 29.0241C43.1486 26.8414 49.7983 15.6739 50.6105 16.4861C50.712 16.6383 50.1537 18.0597 49.3415 19.7348C47.0572 24.2525 46.4481 26.7906 47.4126 28.2627C48.4785 29.9378 50.8136 30.2931 53.0471 29.2272C54.0623 28.7703 55.179 27.9581 55.4836 27.3997C56.2958 26.1815 56.7019 26.2322 57.0572 27.7551C58.0217 31.6129 62.6917 30.1409 66.6003 24.7094L68.1232 22.6789L67.7678 25.0647C67.4633 27.1967 67.5648 27.552 68.7831 28.8211C69.8491 29.8871 70.4074 30.0901 71.7272 29.8363C73.91 29.3794 76.8541 26.3845 78.1739 23.2881C79.1384 21.1053 79.1891 20.547 78.6815 19.4302C78.0216 18.1104 78.0216 18.1104 77.4125 20.4962C76.3465 24.4048 74.4176 26.9937 72.5394 26.9937C71.5749 26.9937 72.1841 24.2525 74.113 19.8871C76.2958 15.0647 76.2958 13.948 74.113 12.7805C73.3008 12.3236 72.9963 12.4759 72.3364 13.7957C71.2704 15.8262 71.1181 15.7246 71.4227 13.2881C71.6765 11.5115 71.5749 11.2069 70.4074 10.6993C66.6511 8.97338 61.6257 12.7805 58.2755 19.8363C56.0927 24.5571 54.1638 26.9937 52.6917 26.9937C51.2197 26.9937 51.575 25.3693 54.2653 20.0901C58.4278 12.0698 58.5293 11.0038 55.5344 10.4455C53.3516 10.0394 52.9963 10.3439 48.377 16.4861C46.3466 19.2272 44.6714 21.3591 44.6714 21.1561C44.6714 21.0038 45.4329 19.3287 46.3973 17.4505C48.6816 12.9328 48.8339 11.7145 47.2095 10.9023C44.773 9.63328 43.91 10.0394 41.2197 13.6434C39.8491 15.5724 38.0725 18.0597 37.311 19.2779C36.5496 20.4454 35.7882 21.3084 35.6867 21.2069C35.3314 20.8515 39.3415 12.4759 40.0522 12.0698C41.0166 11.4607 39.6968 10.2424 38.1232 10.2424C35.9913 10.2424 34.3161 12.4252 31.4227 19.1257C28.4278 26.1307 27.7172 27.0952 25.9405 26.8921C23.6562 26.6383 24.2146 23.7449 28.4786 14.3033C32.3872 5.57237 33.8593 3.33887 35.5852 3.79573C36.2958 3.99877 36.5496 3.79573 36.5496 3.03431C36.5496 -0.366703 32.844 -1.07736 30.0522 1.76527ZM12.5395 14.9125C13.4025 15.9784 12.3365 18.5165 9.49383 22.4759C6.54968 26.5876 5.43293 27.552 4.51922 26.6383C3.09791 25.217 7.15881 16.6383 10.0014 15.1155C11.7781 14.151 11.9304 14.151 12.5395 14.9125ZM69.9506 15.4201C70.3567 17.5521 64.0115 26.9937 62.1333 26.9937C60.9658 26.9937 61.2704 23.948 62.844 20.6485C65.0775 15.9277 69.443 12.7297 69.9506 15.4201Z" fill="#DC0200"/>
<path d="M51.469 2.26523C47.0156 -0.548835 43.3305 0.259257 41.8586 1.36254C43.1054 1.36254 44.456 2.56613 44.9755 3.16792C40.8196 2.44575 39.2612 4.873 39.0015 6.1769C42.1183 5.27421 44.456 5.87601 49.9106 7.68139C54.2742 9.12569 57.7893 5.2742 59.0015 3.16792C58.2222 3.76971 54.3261 4.07063 51.469 2.26523Z" fill="#68B936"/>
</svg>
