<svg width="57" height="23" viewBox="0 0 57 23" fill="none" xmlns="http://www.w3.org/2000/svg">
<path d="M21.6522 1.30966C20.8957 2.10052 19.2745 5.37692 17.0769 10.4233C13.5823 18.4072 12.6457 20.0266 11.3847 20.0266C10.8083 20.0266 10.7003 19.8383 10.9164 18.8968C11.0245 18.2566 11.673 16.4489 12.3935 14.8672C13.8706 11.5531 13.9426 10.4986 12.8618 9.67013C12.0692 9.10523 11.9972 9.14289 11.2046 10.122L10.34 11.1765L10.5922 10.0091C10.8444 8.578 10.0878 7.59884 8.68278 7.59884C4.86401 7.59884 0.324707 13.8127 0.324707 19.0851C0.324707 20.8551 0.432786 21.2317 1.22536 21.7589C2.84654 22.851 5.4044 21.2693 7.56597 17.767C8.14239 16.8631 8.14239 16.8631 7.99829 18.7461C7.81816 20.3655 7.92623 20.8174 8.57471 21.4953C9.7996 22.7757 11.3487 22.4368 13.3662 20.5161L14.3029 19.5746L14.5551 20.4032C14.8793 21.4576 17.0048 22.3991 18.3378 22.0978C18.8782 21.9849 19.7068 21.4576 20.1391 20.9681L20.9317 20.0642L21.7243 20.9681C22.1206 21.4576 22.9131 21.9472 23.4895 22.0602C24.3542 22.2861 24.4623 22.1732 24.4623 21.3823C24.4623 20.8927 24.9666 19.4993 25.5791 18.2942C26.6959 15.997 29.5059 11.9674 29.7581 12.231C29.8302 12.3063 29.3258 13.6244 28.6053 15.1685C26.6238 19.4617 26.9841 21.5706 29.7941 22.1355C30.8029 22.3615 30.947 22.2861 30.947 21.5329C30.947 19.9136 35.6664 11.6284 36.2428 12.231C36.3149 12.344 35.9186 13.3984 35.3422 14.6412C33.721 17.9929 33.2887 19.8759 33.9732 20.9681C34.7297 22.2108 36.3869 22.4744 37.9721 21.6836C38.6926 21.3447 39.4852 20.7421 39.7013 20.3278C40.2778 19.424 40.566 19.4617 40.8181 20.5915C41.5026 23.4536 44.8171 22.3615 47.5911 18.3319L48.6719 16.8255L48.4197 18.5955C48.2035 20.1772 48.2756 20.4408 49.1402 21.3823C49.8968 22.1732 50.293 22.3238 51.2297 22.1355C52.7788 21.7966 54.8684 19.5746 55.805 17.2774C56.4895 15.658 56.5256 15.2438 56.1653 14.4153C55.697 13.4361 55.697 13.4361 55.2647 15.2061C54.5081 18.1059 53.1391 20.0266 51.8061 20.0266C51.1216 20.0266 51.554 17.9929 52.923 14.7542C54.4721 11.1765 54.4721 10.348 52.923 9.48183C52.3465 9.14289 52.1304 9.25587 51.662 10.235C50.9055 11.7414 50.7974 11.6661 51.0136 9.85843C51.1937 8.54034 51.1216 8.31438 50.293 7.93778C47.6271 6.65735 44.0605 9.48183 41.6828 14.7165C40.1337 18.2189 38.7647 20.0266 37.7199 20.0266C36.6751 20.0266 36.9273 18.8214 38.8367 14.9048C41.7909 8.95459 41.8629 8.16374 39.7374 7.74948C38.1882 7.4482 37.9361 7.67416 34.6577 12.231C33.2166 14.2646 32.0278 15.8463 32.0278 15.6957C32.0278 15.5827 32.5681 14.3399 33.2526 12.9465C34.8738 9.59481 34.9819 8.69098 33.8291 8.08842C32.0998 7.14693 31.4874 7.4482 29.578 10.122C28.6053 11.5531 27.3444 13.3984 26.804 14.3023C26.2636 15.1685 25.7232 15.8087 25.6511 15.7333C25.3989 15.4697 28.245 9.25587 28.7494 8.95459C29.4339 8.50268 28.4972 7.59884 27.3804 7.59884C25.8673 7.59884 24.6784 9.21821 22.6249 14.1893C20.4994 19.3863 19.995 20.1019 18.7341 19.9512C17.1129 19.7629 17.5092 17.6163 20.5354 10.6116C23.3094 4.13415 24.3542 2.47712 25.5791 2.81606C26.0834 2.96669 26.2636 2.81606 26.2636 2.25116C26.2636 -0.272045 23.6337 -0.799282 21.6522 1.30966ZM9.22318 11.0635C9.83562 11.8544 9.07907 13.7374 7.06161 16.6748C4.97209 19.7253 4.17951 20.4408 3.53104 19.7629C2.52231 18.7085 5.4044 12.344 7.42187 11.2142C8.68278 10.4986 8.79086 10.4986 9.22318 11.0635ZM49.9688 11.4401C50.257 13.0218 45.7537 20.0266 44.4208 20.0266C43.5922 20.0266 43.8083 17.767 44.9251 15.3191C46.5103 11.8167 49.6085 9.44417 49.9688 11.4401Z" fill="white" fill-opacity="0.2"/>
<path d="M36.8521 1.68054C33.6914 -0.40721 31.076 0.192312 30.0314 1.01084C30.9163 1.01084 31.8748 1.90377 32.2435 2.35024C29.2941 1.81447 28.188 3.61524 28.0037 4.5826C30.2158 3.9129 31.8748 4.35937 35.746 5.69878C38.843 6.7703 41.3377 3.91289 42.198 2.35024C41.645 2.79671 38.8798 3.01996 36.8521 1.68054Z" fill="white" fill-opacity="0.2"/>
</svg>
