<svg width="24" height="24" viewBox="0 0 24 24" fill="none" xmlns="http://www.w3.org/2000/svg">
<path d="M15.65 21.41C15.22 21.41 14.79 21.32 14.44 21.15L9.19004 18.52C8.89004 18.37 8.30004 18.38 8.01004 18.55L5.65004 19.9C4.63004 20.48 3.58004 20.56 2.79004 20.09C1.99004 19.63 1.54004 18.69 1.54004 17.51V7.78997C1.54004 6.87997 2.14004 5.84997 2.93004 5.39997L7.26004 2.91997C7.99004 2.49997 9.10004 2.46997 9.85004 2.84997L15.1 5.47997C15.4 5.62997 15.98 5.60997 16.28 5.44997L18.63 4.10997C19.65 3.52997 20.7 3.44997 21.49 3.91997C22.29 4.37997 22.74 5.31997 22.74 6.49997V16.23C22.74 17.14 22.14 18.17 21.35 18.62L17.02 21.1C16.64 21.3 16.14 21.41 15.65 21.41ZM8.64004 16.92C9.07004 16.92 9.50004 17.01 9.85004 17.18L15.1 19.81C15.4 19.96 15.98 19.94 16.28 19.78L20.61 17.3C20.93 17.12 21.24 16.58 21.24 16.22V6.48997C21.24 5.85997 21.06 5.38997 20.73 5.20997C20.41 5.02997 19.91 5.09997 19.37 5.40997L17.02 6.74997C16.29 7.16997 15.18 7.19997 14.43 6.81997L9.18004 4.18997C8.88004 4.03997 8.30004 4.05997 8.00004 4.21997L3.67004 6.69997C3.35004 6.87997 3.04004 7.41997 3.04004 7.78997V17.52C3.04004 18.15 3.22004 18.62 3.54004 18.8C3.86004 18.99 4.36004 18.91 4.91004 18.6L7.26004 17.26C7.65004 17.03 8.15004 16.92 8.64004 16.92Z" fill="#DC0200"/>
<path d="M8.56006 17.75C8.15006 17.75 7.81006 17.41 7.81006 17V4C7.81006 3.59 8.15006 3.25 8.56006 3.25C8.97006 3.25 9.31006 3.59 9.31006 4V17C9.31006 17.41 8.97006 17.75 8.56006 17.75Z" fill="#DC0200"/>
<path d="M15.73 20.75C15.32 20.75 14.98 20.41 14.98 20V6.62C14.98 6.21 15.32 5.87 15.73 5.87C16.14 5.87 16.48 6.21 16.48 6.62V20C16.48 20.41 16.14 20.75 15.73 20.75Z" fill="#DC0200"/>
<path d="M3 6.5L8 4V17L3 19V6.5Z" fill="#DC0200" stroke="#DC0200"/>
<path d="M16 7.5L21 5V18L16 20V7.5Z" fill="#DC0200" stroke="#DC0200"/>
</svg>
