<svg width="24" height="24" viewBox="0 0 24 24" fill="none" xmlns="http://www.w3.org/2000/svg">
<path d="M12.0179 20C9.34485 20 6.6822 19.5709 4.14388 18.7127C3.20107 18.3987 2.4862 17.7185 2.17538 16.8603C1.86457 16.0021 1.96817 15.0183 2.47584 14.1601L3.79162 11.9414C4.08172 11.4495 4.34073 10.5285 4.34073 9.9529V7.7551C4.34073 3.47462 7.78041 0 12.0179 0C16.2553 0 19.695 3.47462 19.695 7.7551V9.9529C19.695 10.5181 19.954 11.4495 20.2441 11.9414L21.5599 14.1601C22.0468 14.9765 22.1297 15.9498 21.8085 16.8394C21.4874 17.7289 20.7828 18.4092 19.8918 18.7127C17.3535 19.5814 14.6909 20 12.0179 20ZM12.0179 1.58032C8.64034 1.58032 5.8948 4.35374 5.8948 7.76557V9.96337C5.8948 10.8111 5.56327 12.0356 5.12813 12.7577L3.81234 14.9869C3.54297 15.4369 3.48081 15.9184 3.63621 16.337C3.79162 16.7556 4.14388 17.0696 4.64118 17.237C9.40701 18.8383 14.6494 18.8383 19.4153 17.237C19.8608 17.0905 20.2027 16.7556 20.3581 16.3161C20.5238 15.8765 20.472 15.3951 20.2337 14.9869L18.918 12.7682C18.4828 12.046 18.1513 10.8216 18.1513 9.97384V7.77603C18.1409 4.35374 15.3954 1.58032 12.0179 1.58032Z" fill="#AAAAAA"/>
<path d="M12.0179 1.58032C8.64034 1.58032 5.8948 4.35374 5.8948 7.76557V9.96337C5.8948 10.8111 5.56327 12.0356 5.12813 12.7577L3.81234 14.9869C3.54297 15.4369 3.48081 15.9184 3.63621 16.337C3.79162 16.7556 4.14388 17.0696 4.64118 17.237C9.40701 18.8383 14.6494 18.8383 19.4153 17.237C19.8608 17.0905 20.2027 16.7556 20.3581 16.3161C20.5238 15.8765 20.472 15.3951 20.2337 14.9869L18.918 12.7682C18.4828 12.046 18.1513 10.8216 18.1513 9.97384V7.77603C18.1409 4.35374 15.3954 1.58032 12.0179 1.58032Z" fill="#AAAAAA"/>
<path d="M12 23.5C11.2132 23.5 10.4412 23.2304 9.88235 22.7647C9.41067 22.3716 9.10663 21.852 9.02327 21.3052C8.99777 21.1379 9.13717 21 9.30637 21H10.1029C10.1029 21 11.4412 21 11.9412 21C12.9853 21 13.8971 21 13.8971 21H14.6936C14.8628 21 15.0023 21.138 14.9777 21.3054C14.7965 22.5405 13.5304 23.5 12 23.5Z" fill="#AAAAAA"/>
<path d="M12 11.52C11.59 11.52 11.25 11.18 11.25 10.77V7.44C11.25 7.03 11.59 6.69 12 6.69C12.41 6.69 12.75 7.03 12.75 7.44V10.77C12.75 11.19 12.41 11.52 12 11.52Z" fill="white"/>
</svg>
