<svg width="20" height="20" viewBox="0 0 20 20" fill="none" xmlns="http://www.w3.org/2000/svg">
<path d="M4.27719 1.85122C3.70016 2.01848 3.13985 2.44498 2.83878 2.9593C2.75934 3.0931 2.65062 3.35235 2.59626 3.53633L2.50009 3.87085V10.005C2.50009 16.7496 2.48755 16.3733 2.75934 16.9378C2.95168 17.335 3.42418 17.8075 3.82978 18.0124C4.365 18.28 4.46118 18.2926 6.4139 18.28L8.15755 18.2675L7.99866 18.0793C7.38399 17.3518 6.89476 16.3189 6.67315 15.2945C6.58952 14.9014 6.57698 14.7258 6.57698 14.0233C6.58116 13.1034 6.64388 12.702 6.91567 11.9284C7.88158 9.15616 10.658 7.34979 13.5432 7.62158C14.4464 7.70521 15.3245 7.97282 16.0479 8.3826L16.3197 8.53731L16.3322 6.19153C16.3406 3.60324 16.3448 3.6116 16.0772 3.07219C15.8974 2.70005 15.4123 2.215 15.0444 2.0352C14.4757 1.75923 14.7726 1.77177 9.39944 1.77595C4.91277 1.77595 4.50717 1.78432 4.27719 1.85122ZM13.2882 4.5566C13.7356 4.82003 13.7356 5.41379 13.2882 5.67722C13.1418 5.76503 13.1 5.76503 9.41616 5.76503H5.6947L5.52326 5.65213C5.03821 5.33016 5.16784 4.6235 5.73651 4.48551C5.80759 4.46879 7.50525 4.46043 9.50397 4.46043C13.0916 4.46879 13.1418 4.46879 13.2882 4.5566ZM9.74649 7.24525C9.92211 7.35397 10.0685 7.60067 10.0685 7.79302C10.0685 7.98537 9.92211 8.23207 9.74649 8.34079L9.5876 8.44114H7.63906H5.6947L5.52326 8.32824C5.03821 8.00627 5.16366 7.30379 5.73651 7.16162C5.80759 7.1449 6.70242 7.13236 7.72687 7.13654L9.5876 7.1449L9.74649 7.24525ZM7.07038 9.92136C7.246 10.0301 7.39235 10.2768 7.39235 10.4691C7.39235 10.6615 7.246 10.9082 7.07038 11.0169C6.92403 11.1089 6.86968 11.1173 6.301 11.1173C5.71142 11.1173 5.68633 11.1131 5.52326 11.0044C5.03821 10.6824 5.16366 9.98409 5.73651 9.83774C5.80759 9.82101 6.10029 9.80847 6.38881 9.81265C6.85295 9.82101 6.9324 9.83355 7.07038 9.92136Z" fill="white"/>
<path d="M12.4938 8.90481C11.2603 9.0637 10.2693 9.52366 9.44559 10.3181C8.34169 11.3886 7.80229 12.7266 7.86501 14.2487C7.92355 15.6327 8.46296 16.8328 9.45395 17.7736C10.424 18.6935 11.6241 19.166 12.9956 19.166C14.3629 19.166 15.5337 18.7102 16.5206 17.7861C17.5199 16.8537 18.0677 15.6453 18.1262 14.2487C18.1889 12.7266 17.6495 11.3886 16.5456 10.3181C15.8432 9.63655 14.94 9.16824 13.9908 8.98425C13.6437 8.91735 12.7656 8.87136 12.4938 8.90481ZM13.305 11.6771C13.5936 11.8402 13.6605 12.0576 13.6646 12.8395V13.3957H14.2751C14.8187 13.3957 14.9023 13.404 15.0445 13.4835C15.3581 13.6591 15.471 14.0814 15.287 14.3574C15.0738 14.6668 15.0612 14.671 13.9866 14.6835C13.4514 14.6919 12.9538 14.6835 12.8785 14.671C12.8033 14.6584 12.6653 14.579 12.5775 14.4995C12.3475 14.2905 12.3182 14.0981 12.335 12.9859C12.3475 12.2416 12.36 12.0576 12.4186 11.9531C12.5106 11.7816 12.6277 11.6855 12.8158 11.6185C12.9914 11.5558 13.1211 11.5726 13.305 11.6771Z" fill="white"/>
</svg>
