<svg width="34.000000" height="34.000000" viewBox="0 0 34 34" fill="none" xmlns="http://www.w3.org/2000/svg" xmlns:xlink="http://www.w3.org/1999/xlink">
	<desc>
			Created with Pixso.
	</desc>
	<defs>
		<clipPath id="clip182_2138">
			<rect id="icons/communication/ic_call_48px" width="34.000000" height="34.000000" fill="white" fill-opacity="0"/>
		</clipPath>
	</defs>
	<rect id="icons/communication/ic_call_48px" width="34.000000" height="34.000000" fill="#FFFFFF" fill-opacity="0"/>
	<g clip-path="url(#clip182_2138)">
		<path id="Vector" d="M9.3855 15.293C11.4255 19.3018 14.7051 22.582 18.7212 24.6221L21.8379 21.498C22.2275 21.1084 22.7871 20.9951 23.2759 21.1504C24.8625 21.6748 26.5696 21.958 28.3333 21.958C29.1196 21.958 29.75 22.5889 29.75 23.375L29.75 28.333C29.75 29.1191 29.1196 29.75 28.3333 29.75C15.0308 29.75 4.25 18.9688 4.25 5.66699C4.25 4.88086 4.88745 4.25 5.66675 4.25L10.625 4.25C11.4111 4.25 12.0417 4.88086 12.0417 5.66699C12.0417 7.43066 12.325 9.1377 12.8491 10.7246C13.0049 11.2129 12.8916 11.7725 12.5022 12.1621L9.3855 15.293Z" fill="#DC0200" fill-opacity="1.000000" fill-rule="nonzero"/>
	</g>
</svg>
