<svg width="24" height="24" viewBox="0 0 24 24" fill="none" xmlns="http://www.w3.org/2000/svg">
<path d="M15.7648 6.22346C15.7648 8.30265 14.0793 9.98817 12.0001 9.98817C9.92088 9.98817 8.23537 8.30265 8.23537 6.22346C8.23537 4.14427 9.92088 2.45875 12.0001 2.45875C14.0793 2.45875 15.7648 4.14427 15.7648 6.22346Z" fill="#AAAAAA" stroke="#AAAAAA" stroke-width="1.88235"/>
<path d="M19.5588 17.3059C19.5588 18.2818 18.9053 19.3192 17.5209 20.1623C16.1531 20.9953 14.2035 21.5412 12 21.5412C9.79652 21.5412 7.84693 20.9953 6.47913 20.1623C5.09471 19.3192 4.44118 18.2818 4.44118 17.3059C4.44118 16.33 5.09471 15.2925 6.47913 14.4494C7.84693 13.6164 9.79652 13.0706 12 13.0706C14.2035 13.0706 16.1531 13.6164 17.5209 14.4494C18.9053 15.2925 19.5588 16.33 19.5588 17.3059Z" fill="#AAAAAA" stroke="#AAAAAA" stroke-width="1.88235"/>
</svg>
