<svg width="24" height="24" viewBox="0 0 24 24" fill="none" xmlns="http://www.w3.org/2000/svg">
<path d="M7.41658 10.8541H5.58325C3.36492 10.8541 2.14575 9.63498 2.14575 7.41665V5.58331C2.14575 3.36498 3.36492 2.14581 5.58325 2.14581H7.41658C9.63492 2.14581 10.8541 3.36498 10.8541 5.58331V7.41665C10.8541 9.63498 9.63492 10.8541 7.41658 10.8541Z" fill="#AAAAAA"/>
<path d="M18.4166 10.8542H16.5833C14.3649 10.8542 13.1458 9.63504 13.1458 7.41671V5.58337C13.1458 3.36504 14.3649 2.14587 16.5833 2.14587H18.4166C20.6349 2.14587 21.8541 3.36504 21.8541 5.58337V7.41671C21.8541 9.63504 20.6349 10.8542 18.4166 10.8542Z" fill="#AAAAAA"/>
<path d="M18.4166 21.8542H16.5833C14.3649 21.8542 13.1458 20.635 13.1458 18.4167V16.5834C13.1458 14.365 14.3649 13.1459 16.5833 13.1459H18.4166C20.6349 13.1459 21.8541 14.365 21.8541 16.5834V18.4167C21.8541 20.635 20.6349 21.8542 18.4166 21.8542Z" fill="#AAAAAA"/>
<path d="M7.41658 21.8542H5.58325C3.36492 21.8542 2.14575 20.635 2.14575 18.4167V16.5834C2.14575 14.365 3.36492 13.1459 5.58325 13.1459H7.41658C9.63492 13.1459 10.8541 14.365 10.8541 16.5834V18.4167C10.8541 20.635 9.63492 21.8542 7.41658 21.8542Z" fill="#AAAAAA"/>
</svg>
