<svg width="18.666626" height="18.057617" viewBox="0 0 18.6666 18.0576" fill="none" xmlns="http://www.w3.org/2000/svg" xmlns:xlink="http://www.w3.org/1999/xlink">
	<desc>
			Created with Pixso.
	</desc>
	<defs/>
	<path id="Vector" d="M6.95154 17.0352C5.5553 16.6191 4.31238 15.8477 3.32825 14.8242C3.69543 14.3896 3.91663 13.8271 3.91663 13.2139C3.91663 11.833 2.79736 10.7139 1.41663 10.7139C1.33313 10.7139 1.25061 10.7178 1.16919 10.7256C1.05823 10.1836 1 9.62207 1 9.04688C1 8.17578 1.13367 7.33594 1.38159 6.54688C1.39331 6.54688 1.40491 6.54688 1.41663 6.54688C2.79736 6.54688 3.91663 5.42773 3.91663 4.04688C3.91663 3.65039 3.82446 3.27539 3.66028 2.94238C4.6239 2.04688 5.80017 1.37598 7.1051 1.01465C7.51855 1.8252 8.36108 2.37988 9.33337 2.37988C10.3055 2.37988 11.1482 1.8252 11.5616 1.01465C12.8665 1.37598 14.0427 2.04688 15.0065 2.94238C14.8423 3.27539 14.75 3.65039 14.75 4.04688C14.75 5.42773 15.8693 6.54688 17.25 6.54688C17.2617 6.54688 17.2734 6.54688 17.285 6.54688C17.533 7.33594 17.6666 8.17578 17.6666 9.04688C17.6666 9.62207 17.6084 10.1836 17.4976 10.7256C17.4161 10.7178 17.3335 10.7139 17.25 10.7139C15.8693 10.7139 14.75 11.833 14.75 13.2139C14.75 13.8271 14.9713 14.3896 15.3384 14.8242C14.3542 15.8477 13.1113 16.6191 11.7151 17.0352C11.3928 16.0264 10.4484 15.2969 9.33337 15.2969C8.21838 15.2969 7.2738 16.0264 6.95154 17.0352Z" fill="#FFFFFF" fill-opacity="1.000000" fill-rule="nonzero"/>
	<path id="Vector" d="M3.32825 14.8242C3.69543 14.3896 3.91663 13.8271 3.91663 13.2139C3.91663 11.833 2.79736 10.7139 1.41663 10.7139C1.33313 10.7139 1.25061 10.7178 1.16919 10.7256C1.05823 10.1836 1 9.62207 1 9.04688C1 8.17578 1.13367 7.33594 1.38159 6.54688C1.39331 6.54688 1.40491 6.54688 1.41663 6.54688C2.79736 6.54688 3.91663 5.42773 3.91663 4.04688C3.91663 3.65039 3.82446 3.27539 3.66028 2.94238C4.6239 2.04688 5.80017 1.37598 7.1051 1.01465C7.51855 1.8252 8.36108 2.37988 9.33337 2.37988C10.3055 2.37988 11.1482 1.8252 11.5616 1.01465C12.8665 1.37598 14.0427 2.04688 15.0065 2.94238C14.8423 3.27539 14.75 3.65039 14.75 4.04688C14.75 5.42773 15.8693 6.54688 17.25 6.54688C17.2617 6.54688 17.2734 6.54688 17.285 6.54688C17.533 7.33594 17.6666 8.17578 17.6666 9.04688C17.6666 9.62207 17.6084 10.1836 17.4976 10.7256C17.4161 10.7178 17.3335 10.7139 17.25 10.7139C15.8693 10.7139 14.75 11.833 14.75 13.2139C14.75 13.8271 14.9713 14.3896 15.3384 14.8242C14.3542 15.8477 13.1113 16.6191 11.7151 17.0352C11.3928 16.0264 10.4484 15.2969 9.33337 15.2969C8.21838 15.2969 7.2738 16.0264 6.95154 17.0352C5.5553 16.6191 4.31238 15.8477 3.32825 14.8242Z" stroke="#FFFFFF" stroke-opacity="1.000000" stroke-width="2.000000" stroke-linejoin="round"/>
</svg>
