<svg width="20.000000" height="20.000000" viewBox="0 0 20 20" fill="none" xmlns="http://www.w3.org/2000/svg" xmlns:xlink="http://www.w3.org/1999/xlink">
	<desc>
			Created with Pixso.
	</desc>
	<defs>
		<clipPath id="clip20_2055">
			<rect id="setting-two" width="20.000000" height="20.000000" fill="white" fill-opacity="0"/>
		</clipPath>
	</defs>
	<rect id="setting-two" width="20.000000" height="20.000000" fill="#FFFFFF" fill-opacity="0"/>
	<g clip-path="url(#clip20_2055)">
		<path id="Vector" d="M7.61816 17.9883C6.22192 17.5723 4.979 16.8008 3.99487 15.7773C4.36206 15.3428 4.58325 14.7803 4.58325 14.167C4.58325 12.7861 3.46399 11.667 2.08325 11.667C1.99976 11.667 1.91724 11.6709 1.83582 11.6787C1.72485 11.1367 1.66663 10.5752 1.66663 10C1.66663 9.12891 1.80029 8.28906 2.04822 7.5C2.05994 7.5 2.07153 7.5 2.08325 7.5C3.46399 7.5 4.58325 6.38086 4.58325 5C4.58325 4.60352 4.49109 4.22852 4.3269 3.89551C5.29053 3 6.4668 2.3291 7.77173 1.96777C8.18518 2.77832 9.02771 3.33301 10 3.33301C10.9722 3.33301 11.8148 2.77832 12.2283 1.96777C13.5331 2.3291 14.7094 3 15.6731 3.89551C15.5089 4.22852 15.4166 4.60352 15.4166 5C15.4166 6.38086 16.5359 7.5 17.9166 7.5C17.9283 7.5 17.9401 7.5 17.9517 7.5C18.1996 8.28906 18.3333 9.12891 18.3333 10C18.3333 10.5752 18.275 11.1367 18.1642 11.6787C18.0828 11.6709 18.0001 11.667 17.9166 11.667C16.5359 11.667 15.4166 12.7861 15.4166 14.167C15.4166 14.7803 15.6379 15.3428 16.005 15.7773C15.0209 16.8008 13.778 17.5723 12.3817 17.9883C12.0594 16.9795 11.115 16.25 10 16.25C8.88501 16.25 7.94043 16.9795 7.61816 17.9883Z" fill="#FFFFFF" fill-opacity="1.000000" fill-rule="nonzero"/>
		<path id="Vector" d="M3.99487 15.7773C4.36206 15.3428 4.58325 14.7803 4.58325 14.167C4.58325 12.7861 3.46399 11.667 2.08325 11.667C1.99976 11.667 1.91724 11.6709 1.83582 11.6787C1.72485 11.1367 1.66663 10.5752 1.66663 10C1.66663 9.12891 1.80029 8.28906 2.04822 7.5C2.05994 7.5 2.07153 7.5 2.08325 7.5C3.46399 7.5 4.58325 6.38086 4.58325 5C4.58325 4.60352 4.49109 4.22852 4.3269 3.89551C5.29053 3 6.4668 2.3291 7.77173 1.96777C8.18518 2.77832 9.02771 3.33301 10 3.33301C10.9722 3.33301 11.8148 2.77832 12.2283 1.96777C13.5331 2.3291 14.7094 3 15.6731 3.89551C15.5089 4.22852 15.4166 4.60352 15.4166 5C15.4166 6.38086 16.5359 7.5 17.9166 7.5C17.9283 7.5 17.9401 7.5 17.9517 7.5C18.1996 8.28906 18.3333 9.12891 18.3333 10C18.3333 10.5752 18.275 11.1367 18.1642 11.6787C18.0828 11.6709 18.0001 11.667 17.9166 11.667C16.5359 11.667 15.4166 12.7861 15.4166 14.167C15.4166 14.7803 15.6379 15.3428 16.005 15.7773C15.0209 16.8008 13.778 17.5723 12.3817 17.9883C12.0594 16.9795 11.115 16.25 10 16.25C8.88501 16.25 7.94043 16.9795 7.61816 17.9883C6.22192 17.5723 4.979 16.8008 3.99487 15.7773Z" stroke="#FFFFFF" stroke-opacity="1.000000" stroke-width="2.000000" stroke-linejoin="round"/>
		<path id="Vector" d="M10 12C11.1046 12 12 11.1045 12 10C12 8.89551 11.1046 8 10 8C8.89539 8 8 8.89551 8 10C8 11.1045 8.89539 12 10 12Z" fill="#DC0200" fill-opacity="1.000000" fill-rule="nonzero"/>
		<path id="Vector" d="M12 10C12 8.89551 11.1046 8 10 8C8.89539 8 8 8.89551 8 10C8 11.1045 8.89539 12 10 12C11.1046 12 12 11.1045 12 10Z" stroke="#DC0200" stroke-opacity="1.000000" stroke-width="2.000000" stroke-linejoin="round"/>
	</g>
</svg>
