<svg width="27.424316" height="22.712891" viewBox="0 0 27.4243 22.7129" fill="none" xmlns="http://www.w3.org/2000/svg" xmlns:xlink="http://www.w3.org/1999/xlink">
	<desc>
			Created with Pixso.
	</desc>
	<defs/>
	<path id="path13" d="M0.414307 10.5654C3.21973 9.01953 6.35156 7.72949 9.27783 6.43359C14.312 4.30957 19.3662 2.22363 24.4714 0.280273C25.4646 -0.0498047 27.2495 -0.374023 27.4243 1.09766C27.3286 3.18164 26.9343 5.25293 26.6641 7.32422C25.9778 11.8799 25.1846 16.4189 24.4109 20.959C24.1445 22.4717 22.25 23.2549 21.0378 22.2871C18.1245 20.3193 15.189 18.3701 12.313 16.3574C11.3708 15.3994 12.2444 14.0254 13.0859 13.3418C15.4854 10.9766 18.0298 8.96777 20.304 6.48145C20.9172 5 19.105 6.24805 18.5071 6.63086C15.2222 8.89453 12.0178 11.2959 8.55469 13.2852C6.78564 14.2588 4.72388 13.4268 2.95557 12.8838C1.37036 12.2275 -0.952881 11.5664 0.414062 10.5654L0.414307 10.5654Z" fill="#DC0200" fill-opacity="1.000000" fill-rule="nonzero"/>
</svg>
