<svg width="30.000000" height="30.000000" viewBox="0 0 30 30" fill="none" xmlns="http://www.w3.org/2000/svg" xmlns:xlink="http://www.w3.org/1999/xlink">
	<desc>
			Created with Pixso.
	</desc>
	<defs>
		<clipPath id="clip182_2177">
			<rect id="Tik Tok/black" width="30.000000" height="30.000000" fill="white" fill-opacity="0"/>
		</clipPath>
	</defs>
	<rect id="Tik Tok/black" width="30.000000" height="30.000000" fill="#FFFFFF" fill-opacity="0"/>
	<g clip-path="url(#clip182_2177)">
		<path id="Union" d="M9.04419 23.3271C9.63818 23.6406 10.2998 23.8037 10.9714 23.8037C13.2087 23.8037 15.0349 22.0244 15.1174 19.8066L15.1257 0L20.0671 0C20.0676 0.420898 20.1067 0.84082 20.1841 1.25391L16.5657 1.25391L16.5657 1.25488L20.1841 1.25488L21.5081 1.25488C21.5073 2.91211 22.1082 4.51367 23.199 5.76172C23.1995 5.7627 23.2 5.7627 23.2004 5.76367C24.3132 6.49023 25.6138 6.87695 26.9431 6.87598L26.9431 7.97656C27.4082 8.07617 27.8892 8.12891 28.3838 8.12891L28.3838 13.0723C25.9167 13.0752 23.5112 12.3018 21.5081 10.8613L21.5081 20.9043C21.5081 25.9189 17.4275 30 12.4116 30C11.1626 30 9.92676 29.7422 8.78198 29.2432C7.63794 28.7441 6.60938 28.0137 5.76025 27.0986C5.75977 27.0986 5.75903 27.0977 5.75854 27.0977C3.41284 25.4512 1.875 22.7275 1.875 19.6504C1.875 14.6348 5.95557 10.5527 10.9714 10.5527C11.3816 10.5547 11.7913 10.585 12.1973 10.6426L12.1973 11.8125L12.1973 15.6875L12.1973 11.8125C12.2258 11.8115 12.2542 11.8105 12.2827 11.8096C12.3254 11.8086 12.3684 11.8066 12.4116 11.8066C12.8218 11.8086 13.2312 11.8389 13.6375 11.8965L13.6375 16.9414C13.25 16.8203 12.8396 16.749 12.4116 16.749C11.3101 16.751 10.2542 17.1885 9.47534 17.9678C8.69653 18.7471 8.25854 19.8027 8.25732 20.9043C8.25757 21.7744 8.53247 22.6221 9.04297 23.3262C9.04346 23.3262 9.0437 23.3271 9.04419 23.3271ZM14.3481 24.5781C15.6204 23.9033 16.501 22.585 16.5583 21.0596L16.5583 21.0605C16.501 22.585 15.6204 23.9033 14.3481 24.5781ZM10.9719 15.4951C11.2261 15.4951 11.4744 15.5205 11.7156 15.5664C11.4707 15.5195 11.2217 15.4961 10.9719 15.4951ZM3.91528 24.1494C4.3374 25.25 4.96729 26.2471 5.75635 27.0957C4.95142 26.2344 4.32959 25.2314 3.91528 24.1494ZM20.0671 19.6494L20.0671 9.60645L20.0671 19.6494Z" fill="#DC0200" fill-opacity="1.000000" fill-rule="evenodd"/>
	</g>
</svg>
