<svg width="30" height="30" viewBox="0 0 30 30" fill="none" xmlns="http://www.w3.org/2000/svg">
<g clip-path="url(#clip0_409_3320)">
<path fill-rule="evenodd" clip-rule="evenodd" d="M12.1972 11.8122V10.6421C11.7912 10.5845 11.3816 10.5547 10.9715 10.5527C5.95566 10.5527 1.875 14.6341 1.875 19.6499C1.875 22.7267 3.41272 25.4504 5.75847 27.0973C4.18779 25.4176 3.31458 23.2035 3.31584 20.9038C3.31584 15.9595 7.28039 11.9276 12.1972 11.8122Z" fill="#00F2EA"/>
<path fill-rule="evenodd" clip-rule="evenodd" d="M12.4116 25.0584C14.6495 25.0584 16.4751 23.2781 16.5583 21.0595L16.5658 1.25395H20.1841C20.1068 0.840425 20.0677 0.420678 20.0673 0H15.1257L15.1174 19.8062C15.035 22.0242 13.2087 23.8038 10.9715 23.8038C10.2998 23.804 9.63825 23.6403 9.04419 23.3269C9.42778 23.8621 9.93325 24.2982 10.5188 24.5993C11.1044 24.9004 11.7532 25.0578 12.4116 25.0584ZM26.9431 7.9765V6.87577C25.6133 6.87701 24.3121 6.49016 23.1991 5.76268C24.1749 6.88628 25.4889 7.66309 26.9437 7.9765" fill="#00F2EA"/>
<path fill-rule="evenodd" clip-rule="evenodd" d="M23.1991 5.76126C22.1083 4.51312 21.5075 2.91154 21.5082 1.25391H20.1842C20.3556 2.17011 20.7112 3.042 21.2294 3.81676C21.7477 4.59152 22.4178 5.25304 23.1991 5.76126ZM10.9716 15.4947C9.8702 15.4959 8.81431 15.934 8.03552 16.7128C7.25674 17.4916 6.81866 18.5475 6.81738 19.6488C6.81811 20.4065 7.02589 21.1495 7.41824 21.7976C7.8106 22.4457 8.37262 22.9743 9.04357 23.3262C8.53271 22.6217 8.25759 21.7737 8.25754 20.9035C8.25863 19.802 8.69663 18.7459 9.47543 17.967C10.2542 17.1881 11.3102 16.7499 12.4117 16.7486C12.8398 16.7486 13.25 16.8194 13.6375 16.941V11.8957C13.2314 11.8381 12.8219 11.8083 12.4117 11.8063C12.3396 11.8063 12.2688 11.8105 12.1973 11.8118V15.687C11.8009 15.5609 11.3876 15.496 10.9716 15.4947Z" fill="#FF004F"/>
<path fill-rule="evenodd" clip-rule="evenodd" d="M26.9429 7.97725V11.8181C24.38 11.8181 22.0061 10.9984 20.0671 9.60704V19.6503C20.0671 24.6661 15.9871 28.7468 10.9713 28.7468C9.033 28.7468 7.23556 28.1353 5.7583 27.0978C6.60762 28.0137 7.63696 28.7443 8.78181 29.2438C9.92667 29.7434 11.1624 30.0011 12.4115 30.0007C17.4273 30.0007 21.5079 25.9201 21.5079 20.905V10.8617C23.511 12.302 25.9165 13.0756 28.3837 13.0728V8.12978C27.889 8.12978 27.408 8.07619 26.9429 7.97656" fill="#FF004F"/>
<path fill-rule="evenodd" clip-rule="evenodd" d="M20.0671 19.6488V9.60556C22.0701 11.0461 24.4757 11.8197 26.9429 11.8166V7.97577C25.4882 7.66203 24.1745 6.88499 23.1989 5.76126C22.4175 5.25304 21.7474 4.59152 21.2292 3.81676C20.7109 3.042 20.3553 2.17011 20.1839 1.25391H16.5656L16.5581 21.0595C16.4749 23.2774 14.6493 25.0577 12.4115 25.0577C11.753 25.057 11.1042 24.8996 10.5187 24.5985C9.93311 24.2974 9.42762 23.8613 9.044 23.3262C8.37292 22.9744 7.81075 22.4459 7.41827 21.7977C7.02579 21.1496 6.81791 20.4065 6.81712 19.6488C6.81839 18.5475 7.25647 17.4916 8.03525 16.7128C8.81404 15.934 9.86993 15.4959 10.9713 15.4947C11.3987 15.4947 11.8089 15.5647 12.1971 15.6871V11.8118C7.28022 11.9273 3.31567 15.9591 3.31567 20.9035C3.31567 23.2946 4.24463 25.4713 5.7583 27.097C7.28424 28.1712 9.10517 28.747 10.9713 28.7453C15.9871 28.7453 20.0671 24.6647 20.0671 19.6488Z" fill="#191919"/>
</g>
<defs>
<clipPath id="clip0_409_3320">
<rect width="30" height="30" fill="white"/>
</clipPath>
</defs>
</svg>
