<svg width="24" height="25" viewBox="0 0 24 25" fill="none" xmlns="http://www.w3.org/2000/svg">
<g clip-path="url(#clip0_489_12341)">
<path fill-rule="evenodd" clip-rule="evenodd" d="M8.99109 6.48445L15.8924 2.5L18.1986 6.49445L8.99109 6.48445Z" stroke="#DC0200" stroke-width="2" stroke-linecap="round" stroke-linejoin="round"/>
<path d="M2 7.5C2 6.9477 2.44771 6.5 3 6.5H21C21.5523 6.5 22 6.9477 22 7.5V21.5C22 22.0523 21.5523 22.5 21 22.5H3C2.44771 22.5 2 22.0523 2 21.5V7.5Z" stroke="#DC0200" stroke-width="2" stroke-linejoin="round"/>
<path d="M17.625 17H22V12H17.625C16.1753 12 15 13.1193 15 14.5C15 15.8807 16.1753 17 17.625 17Z" stroke="#DC0200" stroke-width="2" stroke-linejoin="round"/>
<path d="M22 8.75V20.75" stroke="#DC0200" stroke-width="2" stroke-linecap="round"/>
</g>
<defs>
<clipPath id="clip0_489_12341">
<rect width="24" height="24" fill="white" transform="translate(0 0.5)"/>
</clipPath>
</defs>
</svg>
