<svg width="29.721191" height="29.731445" viewBox="0 0 29.7212 29.7314" fill="none" xmlns="http://www.w3.org/2000/svg" xmlns:xlink="http://www.w3.org/1999/xlink">
	<desc>
			Created with Pixso.
	</desc>
	<defs/>
	<path id="Combined-Shape" d="M6.74854 27.3389L1.12427 28.8135L2.62549 23.3301L2.27197 22.7676C0.784424 20.4014 -0.0012207 17.667 0 14.8594C0.00317383 6.66602 6.66968 0 14.8667 0C18.8359 0.000976562 22.5671 1.54883 25.3728 4.3584C28.1785 7.16699 29.7227 10.9004 29.7212 14.8711C29.718 23.0654 23.0515 29.7314 14.8608 29.7314L14.8547 29.7314C12.1882 29.7305 9.57275 29.0146 7.29126 27.6602L6.74854 27.3389ZM23.0122 18.6025C23.459 18.8262 23.7566 18.9375 23.8684 19.124C23.98 19.3105 23.98 20.2051 23.6079 21.249C23.2354 22.292 21.4507 23.2441 20.5923 23.373C19.8228 23.4883 18.8486 23.5361 17.7786 23.1953C17.1296 22.9902 16.2976 22.7148 15.2317 22.2549C10.7502 20.3193 7.82349 15.8076 7.6001 15.5088C7.37671 15.2109 5.77588 13.0869 5.77588 10.8877C5.77588 8.68848 6.92993 7.6084 7.3396 7.16113C7.74902 6.71387 8.23291 6.60156 8.53076 6.60156C8.82861 6.60156 9.12671 6.60449 9.38696 6.61719C9.41919 6.61914 9.45264 6.61914 9.48706 6.61914C9.74731 6.61719 10.072 6.61523 10.3921 7.38477C10.7644 8.2793 11.658 10.4775 11.7695 10.7012C11.8813 10.9248 11.9558 11.1855 11.8069 11.4844C11.658 11.7822 11.5835 11.9688 11.3601 12.2295C11.1367 12.4902 10.8909 12.8115 10.6899 13.0127C10.4663 13.2354 10.2334 13.4766 10.4941 13.9238C10.7546 14.3711 11.6511 15.834 12.9792 17.0186C14.6858 18.541 16.1252 19.0127 16.572 19.2363C17.0186 19.46 17.2791 19.4219 17.5398 19.124C17.8003 18.8262 18.6565 17.8193 18.9543 17.3721C19.252 16.9258 19.55 17 19.9595 17.1494C20.3689 17.2979 22.5654 18.3789 23.0122 18.6025Z" clip-rule="evenodd" fill="#DC0200" fill-opacity="1.000000" fill-rule="evenodd"/>
</svg>
