<svg width="36.730469" height="26.400391" viewBox="0 0 36.7305 26.4004" fill="none" xmlns="http://www.w3.org/2000/svg" xmlns:xlink="http://www.w3.org/1999/xlink">
	<desc>
			Created with Pixso.
	</desc>
	<defs/>
	<path id="Fill-1" d="M35.9629 4.12207C35.5405 2.5 34.2959 1.22168 32.7153 0.788086C29.8513 0 18.3652 0 18.3652 0C18.3652 0 6.87915 0 4.01489 0.788086C2.43433 1.22168 1.1897 2.5 0.767334 4.12207C0 7.06348 0 13.2002 0 13.2002C0 13.2002 0 19.3359 0.767334 22.2773C1.1897 23.9004 2.43433 25.1777 4.01489 25.6123C6.87915 26.4004 18.3652 26.4004 18.3652 26.4004C18.3652 26.4004 29.8513 26.4004 32.7153 25.6123C34.2959 25.1777 35.5405 23.9004 35.9629 22.2773C36.7305 19.3359 36.7305 13.2002 36.7305 13.2002C36.7305 13.2002 36.7305 7.06348 35.9629 4.12207Z" fill="#DC0200" fill-opacity="1.000000" fill-rule="nonzero"/>
	<path id="Fill-2" d="M14.9224 19.5137L14.9224 8.03516L24.105 13.7744L14.9224 19.5137Z" fill="#FFFFFF" fill-opacity="1.000000" fill-rule="nonzero"/>
</svg>
