<svg width="37" height="27" viewBox="0 0 37 27" fill="none" xmlns="http://www.w3.org/2000/svg">
<path d="M35.9629 4.12245C35.5405 2.4997 34.2958 1.22185 32.7153 0.788168C29.8512 0 18.3652 0 18.3652 0C18.3652 0 6.87923 0 4.01489 0.788168C2.43443 1.22185 1.18977 2.4997 0.767374 4.12245C0 7.06349 0 13.2 0 13.2C0 13.2 0 19.3363 0.767374 22.2776C1.18977 23.9003 2.43443 25.1781 4.01489 25.612C6.87923 26.4 18.3652 26.4 18.3652 26.4C18.3652 26.4 29.8512 26.4 32.7153 25.612C34.2958 25.1781 35.5405 23.9003 35.9629 22.2776C36.7304 19.3363 36.7304 13.2 36.7304 13.2C36.7304 13.2 36.7304 7.06349 35.9629 4.12245Z" fill="#DC0200"/>
<path d="M14.9224 19.5134V8.03516L24.105 13.7745L14.9224 19.5134Z" fill="white"/>
</svg>
